<svg width="37" height="44" viewBox="0 0 37 44" fill="none" xmlns="http://www.w3.org/2000/svg">
<path d="M33.0761 21.3688L32.7875 19.868C31.1048 22.3593 30.0506 23.4824 27.9966 25.063C25.8682 26.3803 24.2597 27.0656 22.4054 27.3395C26.6564 26.9396 29.4312 25.3661 33.0761 21.3688Z" fill="#FFD861"/>
<path fill-rule="evenodd" clip-rule="evenodd" d="M24.3601 7.68876L26.3804 6.9961C25.8609 6.59205 24.7064 5.98335 24.1292 5.66851C23.552 5.35366 21.8204 4.57179 20.3196 4.22546C19.119 3.9484 17.2796 4.20312 16.5677 4.31856C14.1117 4.61858 11.8642 5.84456 9.58338 7.32009C9.58338 7.32009 6.87046 9.47814 5.42742 11.3252C3.98437 13.1723 2.07955 16.8088 2.07955 16.8088C2.07955 16.8088 0.98828 19.6108 0.578789 21.4842C0.195484 23.2379 -0.0207348 24.2494 0.00157198 26.0443C0.0196398 27.498 0.463345 29.7384 0.463345 29.7384C0.463345 29.7384 1.18996 32.5764 2.02183 34.2407C2.74304 35.6836 4.27298 37.704 4.27298 37.704C4.27298 37.704 6.58296 40.0751 8.37122 41.1673C10.261 42.3215 11.5373 42.9634 13.68 43.5221C15.5309 44.0047 18.4725 43.9957 18.4725 43.9957C20.3463 44.0647 23.6855 43.2824 23.7252 43.0722C17.3422 37.3115 15.0795 33.6271 13.9702 26.0443C13.917 23.6564 13.8354 22.1275 14.5474 19.1754C14.9652 17.4638 15.4666 16.3655 16.6254 14.269C17.8181 12.6455 18.7106 11.6647 20.9545 9.70902C21.836 8.97595 22.5854 8.49934 24.3601 7.68876ZM18.2416 6.93838C18.6879 6.93838 19.0497 6.57658 19.0497 6.13028C19.0497 5.68398 18.6879 5.32218 18.2416 5.32218C17.7953 5.32218 17.4335 5.68398 17.4335 6.13028C17.4335 6.57658 17.7953 6.93838 18.2416 6.93838Z" fill="#FFCB03"/>
<path d="M18.5302 27.4296C17.8376 27.2949 16.1406 26.8755 13.9702 26.0443C15.0795 33.6271 17.3422 37.3115 23.7252 43.0722C23.7252 43.0722 25.0416 42.6236 26.0918 42.2063C26.0918 42.2063 30.0807 40.0478 31.9794 37.9349C33.5429 36.195 34.2918 35.0299 35.1541 32.8554C35.8292 31.1528 36.2508 28.2954 36.2508 28.2954C36.2508 28.2954 36.3531 25.97 36.2508 24.4858C36.1649 23.2389 35.8467 21.3111 35.8467 21.3111L35.5004 19.8103L34.5191 21.1956C30.5827 25.6009 27.3917 27.0656 22.1603 27.3731C21.0888 27.5091 19.9262 27.5143 18.5302 27.4296Z" fill="#FFD861"/>
<path d="M20.4928 2.08976C19.8001 0.819883 19.1652 0.588997 19.1652 0.588997C19.1652 0.588997 18.3571 0.0695016 17.8953 0.0117799C17.4335 -0.0459417 16.914 0.127223 16.914 0.127223C16.5908 0.265755 16.2623 0.436851 16.0482 0.762163C15.8341 1.08747 15.8188 1.50111 15.6442 1.68571C15.6442 1.68571 14.9515 1.74343 14.5475 1.85887C14.1434 1.97432 13.8548 2.32065 13.8548 2.32065C13.8548 2.32065 13.5662 2.55153 13.4507 2.7247C13.3353 2.89787 13.2776 3.30192 13.2776 3.30192C13.1972 3.41246 13.2955 3.86963 13.393 3.99458C13.393 3.99458 13.4507 4.11002 13.7393 4.22546C14.028 4.34091 14.6629 3.93686 14.6629 3.93686C15.7507 3.61165 16.3798 3.48917 17.549 3.41736C18.7182 3.34555 19.3961 3.5328 19.3961 3.5328L21.0123 3.81146C21.0761 3.82247 21.1306 3.77031 21.1236 3.70589C21.1014 3.50049 20.9919 3.00481 20.4928 2.08976Z" fill="#C91E24"/>
<path d="M34.1728 19.868L33.0761 21.3688C29.4312 25.3661 26.6564 26.9396 22.4054 27.3395C22.3242 27.3514 22.2425 27.3627 22.1603 27.3731C27.3917 27.0656 30.5827 25.6009 34.5191 21.1956L34.1728 19.868Z" fill="#FFCB03"/>
</svg>
