<svg width="42" height="13" viewBox="0 0 42 13" fill="none" xmlns="http://www.w3.org/2000/svg">
<path d="M2.38077 7.99116C2.28102 7.35326 2.24289 7.02455 2.26699 6.58784C2.36788 5.79306 2.87383 4.6156 2.87383 4.6156C2.87383 4.6156 3.823 3.35838 4.69435 2.64337C5.6486 2.0446 6.22217 1.7326 7.34929 1.24005L8.18369 0.974552C7.838 0.78923 7.52756 0.659441 6.70452 0.367711C6.12936 0.211692 5.41624 0.0557845 4.58057 0.0263638C3.7449 -0.00305699 3.65222 -0.0140881 2.98761 0.0263622C2.13723 0.152389 1.7291 0.301498 1.09123 0.671132C0.5868 1.03739 0.360252 1.31226 0.143039 1.96067C-0.0235187 2.59729 -0.0191926 2.85957 0.0292561 3.28814C0.153589 3.98202 0.274618 4.33143 0.446464 4.8811C0.65709 5.48942 0.818053 5.78444 1.12916 6.28442C1.48545 6.92323 1.78651 7.30254 2.38077 7.99116Z" fill="#FAA831"/>
<path d="M8.98018 6.77748C8.98018 7.92955 8.04624 8.8635 6.89416 8.8635C5.74208 8.8635 4.80814 7.92955 4.80814 6.77748C4.80814 5.6254 5.74208 4.69146 6.89416 4.69146C8.04624 4.69146 8.98018 5.6254 8.98018 6.77748Z" fill="#FAA831"/>
<path d="M2.45662 8.10494C3.4223 9.15177 4.03026 9.59902 5.33912 9.92547C6.80525 10.0815 7.59436 10.0016 8.86639 9.16692C9.70145 8.41837 10.089 7.96309 10.5352 7.04297C10.8443 6.2544 10.9462 5.78506 10.9524 4.8811C10.9273 4.16316 10.8275 3.72503 10.3835 2.83301C10.0532 2.30603 9.77567 2.00715 9.09396 1.46761L8.29748 0.974552C8.82821 0.818139 8.82846 0.822842 9.28359 0.746987C9.73873 0.671131 10.2697 0.671131 10.8766 0.709059C11.4834 0.746987 12.3557 1.08834 12.735 1.42968C13.1143 1.77103 13.6073 2.71922 13.6453 3.40192C13.6832 4.08462 13.6832 5.18452 13.6073 5.67758C13.5315 6.17064 12.8023 8.32783 12.0902 9.62205C11.3809 10.6574 10.9117 11.0882 10.0042 11.7081C9.14419 12.0914 8.64156 12.1909 7.72856 12.277C6.64632 12.224 6.06195 12.0278 5.0357 11.5564C4.38472 11.0924 3.86255 10.6344 3.32896 10.0013C2.79537 9.3683 2.67762 8.81494 2.45662 8.10494Z" fill="#FAA831"/>
<path d="M18.3862 2.52958C18.3862 2.52958 18.8034 2.37788 19.4103 2.52959C20.0171 2.6813 20.4722 2.89622 20.624 2.98471C20.6619 2.97207 20.8136 2.833 21.117 2.37787C21.4204 1.92274 21.3951 1.75839 21.3446 1.7331C21.117 1.60668 20.5557 1.33866 20.1309 1.27797C19.7061 1.21729 19.2206 1.17683 19.031 1.16419C18.2678 1.21981 17.9844 1.28567 17.5897 1.42968C17.0776 1.68292 16.858 1.85076 16.5657 2.18823C16.3365 2.42901 16.2284 2.60355 16.1106 3.06057V3.9329C16.1611 4.12254 16.3761 4.57009 16.8312 4.84317C17.2863 5.11625 18.0828 5.43737 18.4242 5.56379C18.6264 5.62701 19.0537 5.82928 19.1448 6.13271C19.2358 6.43613 19.1827 6.56255 19.1448 6.58784C19.031 6.76483 18.72 7.11124 18.3862 7.0809C18.0525 7.05055 17.5645 6.96711 17.3622 6.92919C17.0588 6.82805 16.4747 6.62577 16.2623 6.47405C16.0499 6.32234 15.7186 6.72691 15.6175 6.96711L15.3648 7.50864C15.3566 7.52623 15.3553 7.54648 15.3657 7.56287C15.3973 7.61272 15.4813 7.70203 15.6554 7.80152C15.883 7.92795 16.4898 8.19597 17.0967 8.25665C17.7035 8.31734 18.2851 8.30722 18.5 8.29458C18.854 8.26929 19.6985 8.10494 20.2447 7.64981C20.7908 7.19468 21.0285 6.43613 21.0032 6.36027C21.0412 6.03157 21.0336 5.29071 20.6998 4.95695C20.2826 4.53975 20.1688 4.46389 19.6758 4.1984C19.2813 3.986 18.8287 3.83176 18.6517 3.78119C18.3989 3.6927 17.8932 3.45502 17.8932 3.21228V2.90886C18.0106 2.69578 18.1134 2.60817 18.3862 2.52958Z" fill="#00589F"/>
<path fill-rule="evenodd" clip-rule="evenodd" d="M21.9514 4.53975C21.825 4.7926 21.6101 5.41208 21.5721 5.82929C21.5342 6.24649 21.5342 6.89126 21.7239 7.27054C21.9135 7.64981 21.9894 7.76359 22.3307 8.02909C22.672 8.29458 23.203 8.33251 23.6582 8.33251C24.1133 8.33251 24.7201 8.1808 25.1753 7.80152C25.6304 7.42225 25.858 7.19468 26.0855 6.66369C26.3131 6.13271 26.389 5.67758 26.4269 5.26037C26.4648 4.84317 26.5027 4.38804 26.3131 3.9329C26.1235 3.47777 25.7063 3.25021 25.5545 3.13642C25.4028 3.02264 24.4546 2.833 23.8857 2.98471C23.3168 3.13642 22.9375 3.32606 22.6341 3.62948C22.3914 3.87222 22.0778 4.33747 21.9514 4.53975ZM23.4306 4.84317C23.4387 4.73327 23.6128 4.47817 23.8478 4.1984C24.0688 4.08979 24.4503 4.03629 24.5684 4.16047C24.7274 4.32766 24.8339 4.42596 24.8339 4.84317C24.8339 5.26037 24.796 5.63965 24.6064 6.17063C24.4167 6.70162 24.3788 7.00504 23.9616 7.11882C23.5444 7.23261 23.2789 7.04297 23.203 6.8154C23.1272 6.58784 23.0893 6.17063 23.203 5.63965C23.2941 5.21486 23.3547 4.98224 23.4306 4.84317Z" fill="#00589F"/>
<path d="M27.4403 3.08176L26.5407 8.06701C26.5027 8.14287 26.5634 8.30975 27.2613 8.21873L28.0957 8.14287L28.7405 4.76731C28.8795 4.65353 29.2108 4.41838 29.4232 4.38804C29.6887 4.35011 29.8024 4.50182 29.8783 4.6156C29.9542 4.72938 29.9542 5.03281 29.8783 5.2983L29.3473 8.14287H30.9023L31.5419 4.79436C31.5453 4.77688 31.5545 4.76127 31.5682 4.74983C31.7156 4.62603 32.0077 4.35914 32.2677 4.38804C32.6091 4.42596 32.6091 4.53975 32.6849 4.72938C32.6976 4.76731 32.7153 4.90385 32.6849 5.14659C32.647 5.45001 32.2677 6.96711 32.2677 7.34639C32.2677 7.72567 32.2677 7.83945 32.3436 7.99116C32.4574 8.13023 32.7911 8.37802 33.2159 8.25665C33.7469 8.10494 33.9366 8.02909 33.9745 7.9153C34.0048 7.82428 33.9366 7.39696 33.8986 7.19468L34.3537 4.50182C34.417 4.1984 34.4599 3.53087 34.1262 3.28814C33.709 2.98471 33.3676 2.87093 32.8367 2.98471C32.4119 3.07574 31.8 3.49042 31.585 3.66741C31.2218 3.1342 30.948 2.94708 30.2576 2.98471C30.0932 3.01 29.6962 3.10608 29.4232 3.28814C29.1501 3.47019 28.9807 3.59156 28.9301 3.62948C28.8922 3.47777 28.7177 3.12125 28.475 3.06057C28.2507 3.00451 27.7718 3.00887 27.5108 3.01983C27.4756 3.02131 27.4465 3.04712 27.4403 3.08176Z" fill="#00589F"/>
<path fill-rule="evenodd" clip-rule="evenodd" d="M35.4118 3.41993C35.4017 3.59109 35.3995 3.89518 35.4537 4.08462C35.5033 4.25855 35.5734 4.385 35.618 4.43898C35.6323 4.45641 35.6558 4.46017 35.6774 4.45348C36.0471 4.33893 36.4449 4.16047 36.857 4.16047C37.1225 4.14783 37.6762 4.19081 37.7672 4.46389C37.8583 4.73697 37.7799 4.93167 37.7293 4.99488L36.2501 5.07073C35.9088 5.15923 35.1578 5.48035 34.8847 6.05685C34.8089 6.18328 34.6496 6.53474 34.6192 6.92919C34.5813 7.42225 34.6572 7.46017 34.8089 7.80152C34.8974 7.91531 35.1426 8.15804 35.4157 8.21873C35.7571 8.29458 36.2881 8.37044 36.7053 8.1808C37.1225 7.99116 37.4259 7.80152 37.5017 7.68774L37.881 8.06701C38.0454 8.19344 38.4272 8.39319 38.6396 8.1808C38.852 7.9684 39.0821 7.61188 39.1706 7.46017L39.0188 7.11882C39.0062 7.11882 38.9961 7.0278 39.0568 6.66369C39.1175 6.29959 39.3602 4.94431 39.474 4.31218C39.4993 4.23633 39.4512 3.84188 39.2085 3.47777C38.8671 3.21228 38.6396 2.94679 37.9948 2.94679C37.4931 2.94679 36.1376 3.20989 35.4704 3.35225C35.4378 3.35922 35.4138 3.3866 35.4118 3.41993ZM36.6673 6.05685H37.5017C37.5144 6.15799 37.4942 6.36027 37.4638 6.51198C37.4259 6.70162 37.4259 6.8154 37.1604 7.00504C36.9213 7.17586 36.7437 7.16204 36.5167 7.1299C36.4662 7.12274 36.4182 7.10305 36.3771 7.07283C36.2503 6.97954 36.1469 6.88698 36.2122 6.62577C36.2729 6.38303 36.5536 6.13271 36.6673 6.05685Z" fill="#00589F"/>
<path d="M39.5657 8.1808H41.0235C41.0603 8.1808 41.0918 8.15446 41.0982 8.11828L41.9988 3.07615C42.0072 3.02891 41.9702 2.98581 41.9223 2.98698L40.5213 3.02115C40.4856 3.02202 40.4553 3.04767 40.4486 3.08274L39.4912 8.0907C39.4823 8.13746 39.5181 8.1808 39.5657 8.1808Z" fill="#00589F"/>
<path fill-rule="evenodd" clip-rule="evenodd" d="M14.9348 10.7599C15.0258 10.7295 15.0992 10.6967 15.1244 10.684C15.1877 10.6587 15.3672 10.6233 15.4279 10.684C15.473 10.7291 15.479 10.8188 15.4739 10.8879C15.4712 10.924 15.4399 10.9501 15.4039 10.9535C15.281 10.9649 15.0445 10.999 14.9411 11.0238C14.9368 11.0249 14.9329 11.0262 14.9289 11.028C14.8136 11.081 14.6016 11.2257 14.6314 11.4046C14.644 11.5184 14.735 11.7664 14.8867 11.7664C15.0764 11.7664 15.266 11.6906 15.3798 11.6147C15.4936 11.6906 15.5417 11.8218 15.6175 11.7081L15.6554 11.5943C15.6681 11.4173 15.7009 11.0254 15.7313 10.8737C15.7692 10.684 15.7313 10.5323 15.5037 10.4565C15.2762 10.3806 15.0486 10.4565 14.9727 10.4944C14.9124 10.5145 14.8709 10.5357 14.8461 10.5515C14.8291 10.5622 14.8207 10.5816 14.8222 10.6016C14.8278 10.6796 14.8552 10.7864 14.9348 10.7599ZM14.9702 11.2649C15.0309 11.1435 15.4253 11.189 15.4253 11.189C15.4253 11.189 15.3798 11.4157 15.2382 11.4805C15.1407 11.5251 15.0486 11.5943 14.9727 11.5184C14.8969 11.4426 14.8943 11.4166 14.9702 11.2649Z" fill="#00589F"/>
<path d="M17.9311 9.84961C17.9943 9.82433 18.1207 9.79651 18.1207 9.88754C18.1207 10.0013 17.7794 11.4805 17.8932 11.5184C18.0069 11.5564 18.0878 11.4956 18.0828 11.6322C18.0794 11.7248 17.9019 11.8082 17.7415 11.746C17.6395 11.7064 17.6277 11.5943 17.6277 11.5564L17.9311 9.84961Z" fill="#00589F"/>
<path d="M20.1244 10.4565H20.2447C20.2826 10.4565 20.3585 10.4944 20.3585 10.6461C20.3585 10.7978 20.2573 11.392 20.2068 11.6701C20.2068 11.6954 20.184 11.746 20.093 11.746C19.9792 11.746 19.9033 11.746 19.9413 11.6701C19.9696 11.5286 20.0441 11.0457 20.0848 10.7763C20.0897 10.7439 20.0729 10.7122 20.045 10.695C20.0214 10.6805 19.996 10.6629 19.9792 10.6461C19.9488 10.6158 20.0171 10.5323 20.055 10.4944L20.0707 10.4787C20.085 10.4644 20.1043 10.4565 20.1244 10.4565Z" fill="#00589F"/>
<path d="M20.2068 10.2289C20.2826 10.2289 20.3914 10.2339 20.4343 10.191C20.4722 10.153 20.4722 10.0266 20.4722 10.0013C20.4596 9.97604 20.4191 9.92547 20.3585 9.92547C20.2978 9.92547 20.232 9.95075 20.2068 9.9634C20.1941 9.9634 20.1688 9.98615 20.1688 10.0772C20.1688 10.1154 20.1638 10.1606 20.1633 10.192C20.1628 10.2163 20.1825 10.2289 20.2068 10.2289Z" fill="#00589F"/>
<path d="M22.4066 10.4565L22.179 11.6701C22.179 11.6954 22.2017 11.746 22.2928 11.746C22.4066 11.746 22.4445 11.746 22.4824 11.5184C22.5128 11.3364 22.5962 10.9622 22.6341 10.7978C22.6847 10.7472 22.8086 10.6537 22.8996 10.684C23.0134 10.7219 23.0134 10.7599 23.0134 10.8737C23.0134 10.9647 22.9375 11.4426 22.8996 11.6701C22.8996 11.6954 22.9035 11.7452 22.9945 11.7452C23.1083 11.7452 23.1463 11.7452 23.1842 11.5556C23.2145 11.4039 23.2789 10.9874 23.3168 10.7978C23.38 10.7346 23.5292 10.6158 23.6202 10.6461C23.734 10.684 23.7719 10.7599 23.734 10.9116C23.6961 11.0633 23.5823 11.5951 23.6202 11.6701C23.6506 11.7302 23.734 11.7457 23.7719 11.746C23.8225 11.7586 23.9237 11.7232 23.9237 11.4805C23.954 11.2074 24.0122 10.8357 24.0374 10.684C24.0374 10.6461 24.0147 10.5551 23.9237 10.4944C23.8099 10.4185 23.6202 10.4185 23.5444 10.4565C23.5021 10.4776 23.4326 10.5431 23.3774 10.5936C23.3452 10.623 23.2976 10.6149 23.2716 10.5799C23.2358 10.5319 23.1851 10.4758 23.1272 10.4565C23.0134 10.4185 22.8996 10.4565 22.7858 10.4944C22.7535 10.5052 22.725 10.5178 22.7017 10.5297C22.6671 10.5473 22.6214 10.5322 22.6092 10.4954C22.6014 10.4721 22.5797 10.4565 22.5552 10.4565H22.4066Z" fill="#00589F"/>
<path fill-rule="evenodd" clip-rule="evenodd" d="M26.1522 11.1771H26.882L26.9579 10.7599C26.9073 10.6461 26.7606 10.4185 26.5786 10.4185C26.351 10.4185 26.1614 10.4944 25.9718 10.7599C25.7821 11.0254 25.8206 11.4043 25.8959 11.5184C25.9604 11.6162 26.1141 11.7708 26.3131 11.7839C26.5023 11.7964 26.8062 11.6322 26.7682 11.5943C26.7303 11.4805 26.7682 11.4805 26.6165 11.5184C26.4648 11.5564 26.2988 11.5587 26.1993 11.5184C26.0982 11.4775 26.0698 11.3287 26.0876 11.2261C26.0929 11.1957 26.1214 11.1771 26.1522 11.1771ZM26.6165 10.9495H26.1614C26.174 10.8863 26.2221 10.7447 26.3131 10.684C26.4284 10.6195 26.504 10.6189 26.6165 10.684C26.6996 10.7321 26.6544 10.8737 26.6165 10.9495Z" fill="#00589F"/>
<path d="M28.9301 10.4565C28.9301 10.4565 28.7405 11.5791 28.7405 11.6701C28.7405 11.7839 28.9301 11.7839 28.968 11.6701C28.9945 11.5908 29.0901 11.0155 29.1142 10.8694C29.1178 10.8479 29.1301 10.8292 29.1488 10.818C29.2394 10.7638 29.5117 10.6082 29.5369 10.684C29.6128 10.7978 29.6128 10.8737 29.5749 11.0254C29.5445 11.1467 29.4864 11.5058 29.4611 11.6701C29.5117 11.7334 29.628 11.8294 29.6887 11.7081C29.7431 11.5992 29.8525 10.8311 29.8744 10.6741C29.877 10.6558 29.8727 10.6377 29.8614 10.623C29.8169 10.5651 29.6891 10.4185 29.5369 10.4185C29.4101 10.4185 29.2833 10.4864 29.2132 10.5313C29.1806 10.5522 29.1419 10.5457 29.122 10.5126C29.1094 10.4917 29.0954 10.47 29.0818 10.4565C29.0515 10.4261 28.968 10.4438 28.9301 10.4565Z" fill="#00589F"/>
<path d="M31.9157 10.688C31.8392 10.9936 31.7257 11.5743 31.8126 11.6322C31.9264 11.7081 32.1938 11.816 32.2298 11.7081C32.2677 11.5943 32.3057 11.5564 32.1539 11.5184C32.0468 11.4916 32.0343 11.4951 32.0361 11.4781C32.0387 11.4544 32.0424 11.4308 32.0469 11.4074L32.1801 10.7078C32.1869 10.672 32.2182 10.6461 32.2547 10.6461H32.4439C32.475 10.6461 32.5028 10.6272 32.5144 10.5984L32.5295 10.5605C32.5495 10.5107 32.5128 10.4565 32.4591 10.4565H32.2938C32.243 10.4565 32.2066 10.4075 32.2212 10.3588L32.2764 10.1748C32.291 10.1262 32.2545 10.0772 32.2037 10.0772H32.1345C32.101 10.0772 32.0715 10.0992 32.0619 10.1312L31.9805 10.4024C31.9709 10.4345 31.9414 10.4565 31.9079 10.4565H31.8339C31.7991 10.4565 31.7688 10.4801 31.7603 10.5139L31.7526 10.5448C31.7421 10.5869 31.7428 10.6372 31.7856 10.6441C31.7934 10.6454 31.8024 10.6461 31.8126 10.6461C31.8413 10.6461 31.8654 10.6433 31.8842 10.6416C31.911 10.6393 31.9222 10.6619 31.9157 10.688Z" fill="#00589F"/>
<path fill-rule="evenodd" clip-rule="evenodd" d="M34.7281 11.7519C34.864 11.7169 34.99 11.6605 35.0848 11.5184C35.2365 11.2909 35.2474 11.1512 35.2365 10.9116C35.2261 10.684 35.0364 10.3806 34.8468 10.3806C34.6572 10.3806 34.4296 10.4565 34.3158 10.6082C34.202 10.7599 34.0124 11.1392 34.0883 11.4046C34.202 11.6322 34.3158 11.7081 34.4296 11.746L34.4358 11.748C34.5307 11.7793 34.6313 11.7769 34.7281 11.7519ZM34.3917 11.3288C34.3484 11.1558 34.4485 10.8934 34.5605 10.7077C34.6121 10.6221 34.7228 10.591 34.8109 10.6384C34.9008 10.6867 34.991 10.7597 34.9985 10.8737C35.0151 11.1246 34.7863 11.5629 34.6572 11.5564C34.5055 11.5487 34.4296 11.4805 34.3917 11.3288Z" fill="#00589F"/>
<path d="M37.388 10.7599C37.4132 10.6967 37.5017 10.5854 37.6535 10.6461C37.8431 10.7219 37.9948 10.7599 37.9948 10.6461C37.9948 10.5323 37.9948 10.4944 37.8431 10.4565C37.6914 10.4185 37.6155 10.3806 37.4638 10.4185C37.3121 10.4565 37.1225 10.6082 37.1225 10.7599C37.1225 10.9116 37.1604 11.0254 37.2742 11.1012C37.388 11.1771 37.6535 11.215 37.6535 11.3288C37.6535 11.4426 37.5397 11.5943 37.388 11.5564C37.1225 11.5184 37.0845 11.4046 37.0087 11.4805C36.9328 11.5564 36.857 11.6322 37.0466 11.7081C37.2363 11.7839 37.5397 11.8218 37.6914 11.7081C37.8431 11.5943 37.9948 11.4426 37.919 11.2529C37.9063 11.2024 37.8575 11.0697 37.7293 11.0254C37.5267 10.9552 37.3608 10.8126 37.388 10.7599Z" fill="#00589F"/>
</svg>
