<svg id="_01-escolha-a-quantidade" data-name="01-escolha-a-quantidade" xmlns="http://www.w3.org/2000/svg" xmlns:xlink="http://www.w3.org/1999/xlink" width="232" height="232" viewBox="0 0 232 232">
  <defs>
    <clipPath id="clip-path">
      <rect id="Retângulo_4" data-name="Retângulo 4" width="232" height="232" transform="translate(0 -232)" fill="none"/>
    </clipPath>
  </defs>
  <g id="Grupo_15" data-name="Grupo 15" transform="translate(0 232)">
    <g id="Grupo_14" data-name="Grupo 14">
      <g id="Grupo_13" data-name="Grupo 13" clip-path="url(#clip-path)">
        <path id="Caminho_49" data-name="Caminho 49" d="M98.858-186.247c-35.222,4.652-9.968,51.171-59.811,65.792S43.034-12.8,137.4-57.322,134.08-190.9,98.858-186.247Z" fill="rgba(254,166,35,0.1)"/>
        <path id="Caminho_50" data-name="Caminho 50" d="M147.941-110.355h-.5c.026-.415.044-.833.044-1.257a22.583,22.583,0,0,0-3.525-12.066c-2.5-3.826-5.813-5.933-9.323-5.933a9.2,9.2,0,0,0-4.625,1.282c-2.474-4.464-6.193-7.155-10.058-7.155s-7.584,2.691-10.058,7.155a8.994,8.994,0,0,0-9.25,0c-2.473-4.464-6.193-7.155-10.058-7.155S83-132.793,80.53-128.329a9.2,9.2,0,0,0-4.625-1.282c-3.51,0-6.821,2.107-9.323,5.933a22.584,22.584,0,0,0-3.525,12.066c0,.424.018.842.044,1.257h-.5a4.339,4.339,0,0,0-4.317,4.313v2.48a1.845,1.845,0,0,0,1.835,1.836h.342l.6,5.416v.007l1.051,9.463a5.682,5.682,0,0,0,5.5,5.3h19.3a1.845,1.845,0,0,0,1.835-1.835,1.844,1.844,0,0,1,1.836-1.836,1.844,1.844,0,0,1,1.835,1.836,1.844,1.844,0,0,0,1.835,1.835h22.028a1.845,1.845,0,0,0,1.835-1.835,1.844,1.844,0,0,1,1.835-1.836,1.845,1.845,0,0,1,1.836,1.836,1.844,1.844,0,0,0,1.835,1.835h19.3a5.682,5.682,0,0,0,5.5-5.3l.4-3.624v-.011l1.25-11.251h.342a1.846,1.846,0,0,0,1.835-1.835v-2.478a4.338,4.338,0,0,0-4.311-4.316ZM130.4-124.089a1.828,1.828,0,0,0,.2-.172,6.3,6.3,0,0,1,4.027-1.678c4.717,0,9.177,6.963,9.177,14.328,0,.426-.016.846-.048,1.257H125.5c-.032-.411-.048-.831-.048-1.257C125.458-116.668,127.56-121.535,130.4-124.089Zm-10.453-7.723c2.657,0,5.328,2.206,7.15,5.834a17.092,17.092,0,0,0-1.791,2.3,22.592,22.592,0,0,0-3.526,12.066c0,.424.018.842.044,1.257h-3.756c.026-.415.044-.833.044-1.257a22.582,22.582,0,0,0-3.525-12.066,17.084,17.084,0,0,0-1.79-2.3c1.822-3.629,4.493-5.834,7.151-5.834Zm-18.912,7.723a1.725,1.725,0,0,0,.2-.172,6.3,6.3,0,0,1,4.028-1.678,6.3,6.3,0,0,1,4.022,1.673,1.787,1.787,0,0,0,.21.179c2.843,2.555,4.944,7.42,4.944,12.475,0,.426-.016.846-.048,1.257H96.14c-.032-.411-.048-.831-.048-1.257,0-5.056,2.1-9.923,4.947-12.477ZM90.58-131.812c2.657,0,5.328,2.206,7.15,5.834a17.074,17.074,0,0,0-1.791,2.3,22.584,22.584,0,0,0-3.525,12.066c0,.424.018.842.044,1.257H88.707c.026-.415.044-.833.044-1.257a22.586,22.586,0,0,0-3.525-12.066,17.074,17.074,0,0,0-1.791-2.3c1.823-3.629,4.493-5.834,7.149-5.834ZM75.9-125.939a6.3,6.3,0,0,1,4.021,1.672,1.792,1.792,0,0,0,.212.181c2.843,2.555,4.944,7.42,4.944,12.475q0,.639-.048,1.257H66.774c-.032-.411-.048-.831-.048-1.257,0-7.366,4.458-14.329,9.177-14.329ZM145.357-92.5h-5.888a1.845,1.845,0,0,0-1.836,1.836,1.845,1.845,0,0,0,1.836,1.836h5.481l-.175,1.577a2.067,2.067,0,0,1-1.846,2.038H125.143a5.517,5.517,0,0,0-5.192-3.672,5.517,5.517,0,0,0-5.191,3.672H95.778a5.517,5.517,0,0,0-5.191-3.672,5.517,5.517,0,0,0-5.192,3.672H67.61a2.068,2.068,0,0,1-1.847-2.038l-.824-7.414H70.42A1.844,1.844,0,0,0,72.256-96.5a1.844,1.844,0,0,0-1.836-1.836H64.532l-.377-3.4h82.229Zm3.226-12.9H61.955v-.642a.654.654,0,0,1,.642-.642h85.344a.655.655,0,0,1,.642.642Z" fill="#fea623"/>
        <path id="Caminho_51" data-name="Caminho 51" d="M75.737-98.333h-.043A1.844,1.844,0,0,0,73.858-96.5a1.844,1.844,0,0,0,1.836,1.835h.043A1.844,1.844,0,0,0,77.573-96.5a1.844,1.844,0,0,0-1.836-1.833Z" fill="#fea623"/>
        <path id="Caminho_52" data-name="Caminho 52" d="M134.2-92.5h-.043a1.844,1.844,0,0,0-1.835,1.836,1.844,1.844,0,0,0,1.835,1.836h.043a1.844,1.844,0,0,0,1.835-1.836A1.844,1.844,0,0,0,134.2-92.5Z" fill="#fea623"/>
        <path id="Caminho_53" data-name="Caminho 53" d="M172.844-145.2a12.378,12.378,0,0,0-1.071-5.712,3.326,3.326,0,0,0-3.045-2.016,3.242,3.242,0,0,0-3,2.016A12.814,12.814,0,0,0,164.7-145.2a12.956,12.956,0,0,0,1.029,5.733,3.242,3.242,0,0,0,3,2.037,3.324,3.324,0,0,0,3.045-2.037A12.514,12.514,0,0,0,172.844-145.2Zm7.182,0a18.167,18.167,0,0,1-.84,5.754,12.137,12.137,0,0,1-2.331,4.221,9.755,9.755,0,0,1-3.57,2.583,11.441,11.441,0,0,1-4.515.882,11.55,11.55,0,0,1-4.557-.882,9.755,9.755,0,0,1-3.57-2.583,11.884,11.884,0,0,1-2.31-4.221,18.6,18.6,0,0,1-.819-5.754,18.4,18.4,0,0,1,.819-5.733,11.906,11.906,0,0,1,2.31-4.2,9.755,9.755,0,0,1,3.57-2.583,11.55,11.55,0,0,1,4.557-.882,11.441,11.441,0,0,1,4.515.882,9.755,9.755,0,0,1,3.57,2.583,12.163,12.163,0,0,1,2.331,4.2A17.97,17.97,0,0,1,180.026-145.2Z" fill="#fea623"/>
        <path id="Caminho_54" data-name="Caminho 54" d="M187.485-151.159l-4.2,1.3a6.051,6.051,0,0,1-1.26-1.176,3.186,3.186,0,0,1-.63-2.1q0-2.52,3.066-3.528l4.7-1.6h1.554a3.859,3.859,0,0,1,2.856,1.05,3.859,3.859,0,0,1,1.05,2.856v21.882q-.462.084-1.365.231a11.35,11.35,0,0,1-1.827.147,9.88,9.88,0,0,1-1.659-.126,2.826,2.826,0,0,1-1.239-.5,2.424,2.424,0,0,1-.777-1.029,4.456,4.456,0,0,1-.273-1.7Z" fill="#fea623"/>
      </g>
    </g>
  </g>
</svg>
