<svg id="_02-defina-a-frequencia" data-name="02-defina-a-frequencia" xmlns="http://www.w3.org/2000/svg" xmlns:xlink="http://www.w3.org/1999/xlink" width="232" height="232" viewBox="0 0 232 232">
  <defs>
    <clipPath id="clip-path">
      <rect id="Retângulo_3" data-name="Retângulo 3" width="232" height="232" transform="translate(0 -232)" fill="none"/>
    </clipPath>
  </defs>
  <g id="Grupo_11" data-name="Grupo 11" transform="translate(0 232)">
    <g id="Grupo_10" data-name="Grupo 10">
      <g id="Grupo_9" data-name="Grupo 9" clip-path="url(#clip-path)">
        <path id="Caminho_25" data-name="Caminho 25" d="M123.807-184.391c-35.229-4.628-22.887,46.849-74.817,48.064S24.959-31.3,127.649-49.866,159.037-179.762,123.807-184.391Z" fill="rgba(254,166,35,0.1)"/>
        <path id="Caminho_26" data-name="Caminho 26" d="M140.981-124.8H67.828a1.267,1.267,0,0,0-1.261,1.261V-69.62a5.391,5.391,0,0,0,5.36,5.36h64.955a5.391,5.391,0,0,0,5.36-5.36v-53.919a1.267,1.267,0,0,0-1.261-1.261ZM139.72-69.62a2.855,2.855,0,0,1-2.838,2.838H71.927a2.854,2.854,0,0,1-2.838-2.838v-52.657h70.63V-69.62Z" fill="#fea623"/>
        <path id="Caminho_27" data-name="Caminho 27" d="M136.882-134.889H71.927a5.391,5.391,0,0,0-5.36,5.36v5.991a1.267,1.267,0,0,0,1.261,1.261h73.153a1.267,1.267,0,0,0,1.261-1.261v-5.991A5.391,5.391,0,0,0,136.882-134.889Zm2.838,10.09H69.09v-4.73a2.854,2.854,0,0,1,2.837-2.837h64.955a2.855,2.855,0,0,1,2.838,2.838v4.73Z" fill="#fea623"/>
        <path id="Caminho_28" data-name="Caminho 28" d="M80.441-139.934a6.343,6.343,0,0,0-6.306,6.306,1.267,1.267,0,0,0,1.261,1.261,1.267,1.267,0,0,0,1.261-1.261,3.8,3.8,0,0,1,3.784-3.784,3.8,3.8,0,0,1,3.784,3.784,3.8,3.8,0,0,1-3.784,3.784,1.267,1.267,0,0,0-1.261,1.261,1.267,1.267,0,0,0,1.261,1.261,6.336,6.336,0,0,0,6.306-6.306,6.336,6.336,0,0,0-6.306-6.306Z" fill="#fea623"/>
        <path id="Caminho_29" data-name="Caminho 29" d="M96.837-139.934a6.343,6.343,0,0,0-6.306,6.306,1.267,1.267,0,0,0,1.261,1.261,1.267,1.267,0,0,0,1.261-1.261,3.8,3.8,0,0,1,3.784-3.784,3.8,3.8,0,0,1,3.784,3.784,3.8,3.8,0,0,1-3.784,3.784,1.267,1.267,0,0,0-1.261,1.261,1.267,1.267,0,0,0,1.261,1.261,6.337,6.337,0,0,0,6.306-6.306A6.337,6.337,0,0,0,96.837-139.934Z" fill="#fea623"/>
        <path id="Caminho_30" data-name="Caminho 30" d="M113.233-139.934a6.343,6.343,0,0,0-6.306,6.306,1.267,1.267,0,0,0,1.261,1.261,1.267,1.267,0,0,0,1.261-1.261,3.8,3.8,0,0,1,3.784-3.784,3.8,3.8,0,0,1,3.784,3.784,3.8,3.8,0,0,1-3.784,3.784,1.267,1.267,0,0,0-1.261,1.261,1.267,1.267,0,0,0,1.261,1.261,6.337,6.337,0,0,0,6.306-6.306,6.337,6.337,0,0,0-6.306-6.306Z" fill="#fea623"/>
        <path id="Caminho_31" data-name="Caminho 31" d="M128.368-139.934a6.343,6.343,0,0,0-6.306,6.306,1.267,1.267,0,0,0,1.261,1.261,1.267,1.267,0,0,0,1.261-1.261,3.8,3.8,0,0,1,3.784-3.784,3.8,3.8,0,0,1,3.784,3.784,3.8,3.8,0,0,1-3.784,3.784,1.267,1.267,0,0,0-1.261,1.261,1.267,1.267,0,0,0,1.261,1.261,6.337,6.337,0,0,0,6.306-6.306A6.337,6.337,0,0,0,128.368-139.934Z" fill="#fea623"/>
        <path id="Caminho_32" data-name="Caminho 32" d="M101.882-117.231H91.792a1.267,1.267,0,0,0-1.261,1.261v10.09a1.267,1.267,0,0,0,1.261,1.261h10.09a1.267,1.267,0,0,0,1.261-1.261v-10.09a1.267,1.267,0,0,0-1.261-1.261Zm-1.261,10.09H93.053v-7.568h7.568Z" fill="#fea623"/>
        <path id="Caminho_33" data-name="Caminho 33" d="M118.278-117.231h-10.09a1.267,1.267,0,0,0-1.261,1.261v10.09a1.267,1.267,0,0,0,1.261,1.261h10.09a1.267,1.267,0,0,0,1.261-1.261v-10.09a1.267,1.267,0,0,0-1.261-1.261Zm-1.261,10.09h-7.568v-7.568h7.568Z" fill="#fea623"/>
        <path id="Caminho_34" data-name="Caminho 34" d="M134.674-117.231h-10.09a1.267,1.267,0,0,0-1.261,1.261v10.09a1.267,1.267,0,0,0,1.261,1.261h10.09a1.267,1.267,0,0,0,1.261-1.261v-10.09a1.267,1.267,0,0,0-1.261-1.261Zm-1.261,10.09h-7.568v-7.568h7.568Z" fill="#fea623"/>
        <path id="Caminho_35" data-name="Caminho 35" d="M85.486-100.835H75.4a1.267,1.267,0,0,0-1.261,1.261v10.09A1.267,1.267,0,0,0,75.4-88.223H85.49a1.267,1.267,0,0,0,1.261-1.261v-10.09a1.267,1.267,0,0,0-1.265-1.261Zm-1.261,10.09H76.658v-7.568h7.567Z" fill="#fea623"/>
        <path id="Caminho_36" data-name="Caminho 36" d="M101.882-100.835H91.792a1.267,1.267,0,0,0-1.261,1.261v10.09a1.267,1.267,0,0,0,1.261,1.261h10.09a1.267,1.267,0,0,0,1.261-1.261v-10.09a1.267,1.267,0,0,0-1.261-1.261Zm-1.261,10.09H93.053v-7.568h7.568Z" fill="#fea623"/>
        <path id="Caminho_37" data-name="Caminho 37" d="M134.674-100.835h-10.09a1.267,1.267,0,0,0-1.261,1.261v10.09a1.267,1.267,0,0,0,1.261,1.261h10.09a1.267,1.267,0,0,0,1.261-1.261v-10.09a1.267,1.267,0,0,0-1.261-1.261Zm-1.261,10.09h-7.568v-7.568h7.568Z" fill="#fea623"/>
        <path id="Caminho_38" data-name="Caminho 38" d="M85.486-84.439H75.4a1.267,1.267,0,0,0-1.261,1.261v10.09A1.267,1.267,0,0,0,75.4-71.827H85.49a1.267,1.267,0,0,0,1.261-1.261v-10.09A1.267,1.267,0,0,0,85.486-84.439Zm-1.261,10.09H76.658v-7.568h7.567Z" fill="#fea623"/>
        <path id="Caminho_39" data-name="Caminho 39" d="M118.278-84.439h-10.09a1.267,1.267,0,0,0-1.261,1.261v10.09a1.267,1.267,0,0,0,1.261,1.261h10.09a1.267,1.267,0,0,0,1.261-1.261v-10.09a1.267,1.267,0,0,0-1.261-1.261Zm-1.261,10.09h-7.568v-7.568h7.568Z" fill="#fea623"/>
        <path id="Caminho_40" data-name="Caminho 40" d="M134.674-84.439h-10.09a1.267,1.267,0,0,0-1.261,1.261v10.09a1.267,1.267,0,0,0,1.261,1.261h10.09a1.267,1.267,0,0,0,1.261-1.261v-10.09a1.267,1.267,0,0,0-1.261-1.261Zm-1.261,10.09h-7.568v-7.568h7.568Z" fill="#fea623"/>
        <path id="Caminho_41" data-name="Caminho 41" d="M86.377-116.862a1.259,1.259,0,0,0-.892-.37,1.259,1.259,0,0,0-.891.37L74.5-106.772a1.262,1.262,0,0,0-.386.908,1.267,1.267,0,0,0,1.261,1.261,1.26,1.26,0,0,0,.909-.386l10.09-10.09a1.26,1.26,0,0,0,.37-.892,1.26,1.26,0,0,0-.367-.891Z" fill="#fea623"/>
        <path id="Caminho_42" data-name="Caminho 42" d="M86.377-106.772l-10.09-10.09a1.262,1.262,0,0,0-.875-.353,1.268,1.268,0,0,0-1.261,1.261,1.263,1.263,0,0,0,.353.875l10.09,10.09a1.26,1.26,0,0,0,.909.386,1.267,1.267,0,0,0,1.261-1.261,1.262,1.262,0,0,0-.387-.908Z" fill="#fea623"/>
        <path id="Caminho_43" data-name="Caminho 43" d="M102.774-84.069a1.26,1.26,0,0,0-.891-.37,1.26,1.26,0,0,0-.892.37L90.9-73.979a1.262,1.262,0,0,0-.386.908,1.267,1.267,0,0,0,1.261,1.261,1.262,1.262,0,0,0,.909-.386l10.09-10.09a1.259,1.259,0,0,0,.37-.891,1.259,1.259,0,0,0-.37-.892Z" fill="#fea623"/>
        <path id="Caminho_44" data-name="Caminho 44" d="M102.774-73.98,92.684-84.07a1.262,1.262,0,0,0-.909-.386,1.267,1.267,0,0,0-1.26,1.256,1.262,1.262,0,0,0,.386.909l10.09,10.09a1.263,1.263,0,0,0,.875.353,1.267,1.267,0,0,0,1.261-1.261A1.262,1.262,0,0,0,102.774-73.98Z" fill="#fea623"/>
        <path id="Caminho_45" data-name="Caminho 45" d="M119.171-100.466a1.258,1.258,0,0,0-.892-.37,1.258,1.258,0,0,0-.891.37L107.3-90.376a1.26,1.26,0,0,0-.386.909,1.267,1.267,0,0,0,1.261,1.261,1.262,1.262,0,0,0,.908-.387l10.09-10.09a1.259,1.259,0,0,0,.37-.892A1.259,1.259,0,0,0,119.171-100.466Z" fill="#fea623"/>
        <path id="Caminho_46" data-name="Caminho 46" d="M119.171-90.376l-10.09-10.09a1.264,1.264,0,0,0-.875-.353,1.268,1.268,0,0,0-1.261,1.261,1.262,1.262,0,0,0,.353.875l10.09,10.09a1.263,1.263,0,0,0,.875.353,1.267,1.267,0,0,0,1.261-1.261,1.262,1.262,0,0,0-.353-.875Z" fill="#fea623"/>
        <path id="Caminho_47" data-name="Caminho 47" d="M190.021-145.783a12.378,12.378,0,0,0-1.071-5.712,3.326,3.326,0,0,0-3.045-2.016,3.242,3.242,0,0,0-3,2.016,12.815,12.815,0,0,0-1.029,5.712,12.956,12.956,0,0,0,1.029,5.733,3.242,3.242,0,0,0,3,2.037,3.324,3.324,0,0,0,3.045-2.037,12.514,12.514,0,0,0,1.071-5.733Zm7.182,0a18.167,18.167,0,0,1-.84,5.754,12.137,12.137,0,0,1-2.331,4.221,9.755,9.755,0,0,1-3.57,2.583,11.441,11.441,0,0,1-4.515.882,11.549,11.549,0,0,1-4.557-.882,9.755,9.755,0,0,1-3.57-2.583,11.884,11.884,0,0,1-2.31-4.221,18.6,18.6,0,0,1-.819-5.754,18.4,18.4,0,0,1,.819-5.733,11.906,11.906,0,0,1,2.31-4.2,9.755,9.755,0,0,1,3.57-2.583,11.55,11.55,0,0,1,4.557-.882,11.441,11.441,0,0,1,4.515.882,9.755,9.755,0,0,1,3.57,2.583,12.162,12.162,0,0,1,2.331,4.2,17.972,17.972,0,0,1,.837,5.733Z" fill="#fea623"/>
        <path id="Caminho_48" data-name="Caminho 48" d="M208.064-159.181a13.544,13.544,0,0,1,4.242.609,9.9,9.9,0,0,1,3.15,1.659,6.98,6.98,0,0,1,1.974,2.478,7.11,7.11,0,0,1,.672,3.066q0,4.41-5,8.4l-5.5,4.41h10.08a6.977,6.977,0,0,1,.483,1.176,5.023,5.023,0,0,1,.231,1.554,2.921,2.921,0,0,1-.672,2.163,2.428,2.428,0,0,1-1.764.651H201.386a4.47,4.47,0,0,1-1.449-1.617,4.9,4.9,0,0,1-.525-2.331,4.642,4.642,0,0,1,.588-2.415,5.969,5.969,0,0,1,1.3-1.575l5.8-4.956q1.092-.924,1.806-1.659a14.069,14.069,0,0,0,1.155-1.323,4.5,4.5,0,0,0,.63-1.092,2.748,2.748,0,0,0,.189-.966,2.1,2.1,0,0,0-1.029-1.848,4.551,4.551,0,0,0-2.541-.672,8.088,8.088,0,0,0-3,.525,11.931,11.931,0,0,0-2.2,1.113,4.215,4.215,0,0,1-1.176-1.26,3.315,3.315,0,0,1-.462-1.764,3.467,3.467,0,0,1,2.058-3.255,12.088,12.088,0,0,1,5.534-1.071Z" fill="#fea623"/>
      </g>
    </g>
  </g>
</svg>
