<svg id="_03-realize-o-pagamento" data-name="03-realize-o-pagamento" xmlns="http://www.w3.org/2000/svg" xmlns:xlink="http://www.w3.org/1999/xlink" width="231" height="232" viewBox="0 0 231 232">
  <defs>
    <clipPath id="clip-path">
      <rect id="Retângulo_1" data-name="Retângulo 1" width="231" height="232" transform="translate(0 -232)" fill="none"/>
    </clipPath>
  </defs>
  <g id="Grupo_3" data-name="Grupo 3" transform="translate(0 232)">
    <g id="Grupo_2" data-name="Grupo 2">
      <g id="Grupo_1" data-name="Grupo 1" clip-path="url(#clip-path)">
        <path id="Caminho_1" data-name="Caminho 1" d="M171.747-70.265c-20.136,29.271-50.122-14.346-85.771,23.424s-94.117-52.432-11.6-116.3S191.883-99.535,171.747-70.265Z" fill="rgba(254,166,35,0.1)"/>
        <path id="Caminho_2" data-name="Caminho 2" d="M149.676-146.408H69.538a6.593,6.593,0,0,0-6.554,6.554v55.272a6.593,6.593,0,0,0,6.554,6.554h80.138a6.593,6.593,0,0,0,6.554-6.554v-55.272a6.592,6.592,0,0,0-6.554-6.554Zm3.445,61.826a3.465,3.465,0,0,1-3.445,3.445H69.538a3.465,3.465,0,0,1-3.445-3.445v-55.272a3.465,3.465,0,0,1,3.445-3.445h80.138a3.465,3.465,0,0,1,3.445,3.445Z" fill="#fea623"/>
        <path id="Caminho_3" data-name="Caminho 3" d="M87.85-101.34H73.863a1.562,1.562,0,0,0-1.554,1.554,1.561,1.561,0,0,0,1.554,1.554H87.85a1.561,1.561,0,0,0,1.55-1.554,1.562,1.562,0,0,0-1.55-1.554Z" fill="#fea623"/>
        <path id="Caminho_4" data-name="Caminho 4" d="M108.053-101.34H94.066a1.562,1.562,0,0,0-1.554,1.554,1.561,1.561,0,0,0,1.554,1.554h13.987a1.562,1.562,0,0,0,1.554-1.554,1.562,1.562,0,0,0-1.554-1.554Z" fill="#fea623"/>
        <path id="Caminho_5" data-name="Caminho 5" d="M75.417-93.569H73.863a1.561,1.561,0,0,0-1.554,1.554,1.561,1.561,0,0,0,1.554,1.554h1.554a1.561,1.561,0,0,0,1.554-1.554A1.561,1.561,0,0,0,75.417-93.569Z" fill="#fea623"/>
        <path id="Caminho_6" data-name="Caminho 6" d="M84.741-93.569H81.633a1.561,1.561,0,0,0-1.554,1.554,1.561,1.561,0,0,0,1.554,1.554h3.108A1.561,1.561,0,0,0,86.3-92.015,1.561,1.561,0,0,0,84.741-93.569Z" fill="#fea623"/>
        <path id="Caminho_7" data-name="Caminho 7" d="M92.511-93.569H90.957A1.561,1.561,0,0,0,89.4-92.015a1.561,1.561,0,0,0,1.554,1.554h1.554a1.561,1.561,0,0,0,1.554-1.554A1.561,1.561,0,0,0,92.511-93.569Z" fill="#fea623"/>
        <path id="Caminho_8" data-name="Caminho 8" d="M101.836-93.569H98.728a1.561,1.561,0,0,0-1.554,1.554,1.561,1.561,0,0,0,1.554,1.554h3.108a1.562,1.562,0,0,0,1.554-1.554A1.562,1.562,0,0,0,101.836-93.569Z" fill="#fea623"/>
        <path id="Caminho_9" data-name="Caminho 9" d="M106.949-93.118a1.557,1.557,0,0,0-.451,1.094,1.562,1.562,0,0,0,1.554,1.554,1.561,1.561,0,0,0,1.554-1.554,1.556,1.556,0,0,0-.45-1.094A1.634,1.634,0,0,0,106.949-93.118Z" fill="#fea623"/>
        <path id="Caminho_10" data-name="Caminho 10" d="M137.58-107.556a10.807,10.807,0,0,0-5.439,1.472,10.882,10.882,0,0,0-5.465-1.472A10.931,10.931,0,0,0,115.8-96.677,10.931,10.931,0,0,0,126.676-85.8a10.881,10.881,0,0,0,5.465-1.472,10.874,10.874,0,0,0,5.442,1.46,10.925,10.925,0,0,0,10.873-10.873,10.925,10.925,0,0,0-10.873-10.873Zm-3.108,10.879a7.742,7.742,0,0,1-2.33,5.535,7.741,7.741,0,0,1-2.332-5.534,7.739,7.739,0,0,1,2.33-5.534A7.74,7.74,0,0,1,134.472-96.677Zm-15.541,0a7.816,7.816,0,0,1,7.77-7.77,7.678,7.678,0,0,1,2.777.536,10.851,10.851,0,0,0,0,14.469,7.688,7.688,0,0,1-2.777.536,7.816,7.816,0,0,1-7.77-7.771Zm18.649,7.77a7.689,7.689,0,0,1-2.777-.536,10.851,10.851,0,0,0,0-14.469,7.678,7.678,0,0,1,2.777-.536,7.807,7.807,0,0,1,7.77,7.771,7.807,7.807,0,0,1-7.77,7.77Z" fill="#fea623"/>
        <path id="Caminho_11" data-name="Caminho 11" d="M75.809-112.218H96.778a3.526,3.526,0,0,0,3.5-3.5v-14.757a3.526,3.526,0,0,0-3.5-3.5H75.809a3.526,3.526,0,0,0-3.5,3.5v14.753a3.525,3.525,0,0,0,3.5,3.5Zm5.82-9.325H75.417v-3.107h6.216Zm-6.216,5.82v-2.711h6.216v2.712a3.347,3.347,0,0,0,.04.4h-5.86a.4.4,0,0,1-.392-.4Zm21.757-5.82H90.958v-2.711a.4.4,0,0,1,.4-.4h5.424a3.35,3.35,0,0,0,.4-.04v3.149Zm-.4,6.216H90.91a3.345,3.345,0,0,0,.04-.4v-2.707h6.216v2.712a.4.4,0,0,1-.388.4Zm0-15.541a.4.4,0,0,1,.4.4v2.313a.4.4,0,0,1-.4.4H91.354a3.526,3.526,0,0,0-3.5,3.5v8.532a.4.4,0,0,1-.4.4H85.138a.4.4,0,0,1-.4-.4v-14.752a.4.4,0,0,1,.4-.4Zm-20.965,0h5.86a3.347,3.347,0,0,0-.04.4v2.712H75.417v-2.719a.4.4,0,0,1,.392-.392Z" fill="#fea623"/>
        <path id="Caminho_12" data-name="Caminho 12" d="M189.466-146.076a12.378,12.378,0,0,0-1.071-5.712,3.326,3.326,0,0,0-3.045-2.016,3.242,3.242,0,0,0-3,2.016,12.814,12.814,0,0,0-1.029,5.712,12.956,12.956,0,0,0,1.029,5.733,3.242,3.242,0,0,0,3,2.037,3.324,3.324,0,0,0,3.045-2.037,12.514,12.514,0,0,0,1.071-5.733Zm7.182,0a18.167,18.167,0,0,1-.84,5.754,12.137,12.137,0,0,1-2.331,4.221,9.755,9.755,0,0,1-3.57,2.583,11.44,11.44,0,0,1-4.515.882,11.549,11.549,0,0,1-4.557-.882,9.755,9.755,0,0,1-3.57-2.583,11.884,11.884,0,0,1-2.31-4.221,18.6,18.6,0,0,1-.819-5.754,18.4,18.4,0,0,1,.819-5.733,11.906,11.906,0,0,1,2.31-4.2,9.755,9.755,0,0,1,3.57-2.583,11.55,11.55,0,0,1,4.557-.882,11.441,11.441,0,0,1,4.515.882,9.755,9.755,0,0,1,3.57,2.583,12.163,12.163,0,0,1,2.331,4.2,17.971,17.971,0,0,1,.84,5.733Z" fill="#fea623"/>
        <path id="Caminho_13" data-name="Caminho 13" d="M207.467-159.474q4.83,0,7.35,1.995a6.477,6.477,0,0,1,2.52,5.355,5.486,5.486,0,0,1-1.071,3.423,7.05,7.05,0,0,1-2.541,2.121,8.209,8.209,0,0,1,1.638.84,5.717,5.717,0,0,1,1.344,1.26,5.867,5.867,0,0,1,.924,1.764,7.446,7.446,0,0,1,.336,2.352,6.656,6.656,0,0,1-.777,3.234,7.317,7.317,0,0,1-2.163,2.436,10.094,10.094,0,0,1-3.3,1.533,15.74,15.74,0,0,1-4.179.525,14.094,14.094,0,0,1-6.594-1.218,3.568,3.568,0,0,1-2.226-3.108,3.439,3.439,0,0,1,.546-1.953,4.04,4.04,0,0,1,1.344-1.281,14.927,14.927,0,0,0,2.247,1.239,8.818,8.818,0,0,0,3.675.651,5.374,5.374,0,0,0,3.171-.756,2.341,2.341,0,0,0,1.029-1.974,2.188,2.188,0,0,0-.819-1.848,4.785,4.785,0,0,0-2.835-.63h-3.948a4.753,4.753,0,0,1-.5-1.134,5.38,5.38,0,0,1-.21-1.6,6.368,6.368,0,0,1,.189-1.659,3.525,3.525,0,0,1,.525-1.155h3.948q3.024,0,3.024-2.31a2.058,2.058,0,0,0-.966-1.764,5.093,5.093,0,0,0-2.9-.672,10.345,10.345,0,0,0-3.024.4,7.626,7.626,0,0,0-2.142.987,4.311,4.311,0,0,1-1.176-1.239,3.207,3.207,0,0,1-.462-1.743,3.245,3.245,0,0,1,2.184-3.087,14.375,14.375,0,0,1,5.839-.984Z" fill="#fea623"/>
      </g>
    </g>
  </g>
</svg>
