<svg id="_04-receba-em-sua-casa" data-name="04-receba-em-sua-casa" xmlns="http://www.w3.org/2000/svg" xmlns:xlink="http://www.w3.org/1999/xlink" width="232" height="232" viewBox="0 0 232 232">
  <defs>
    <clipPath id="clip-path">
      <rect id="Retângulo_2" data-name="Retângulo 2" width="232" height="232" transform="translate(0 -232)" fill="none"/>
    </clipPath>
  </defs>
  <g id="Grupo_7" data-name="Grupo 7" transform="translate(0 232)">
    <g id="Grupo_6" data-name="Grupo 6">
      <g id="Grupo_5" data-name="Grupo 5" clip-path="url(#clip-path)">
        <path id="Caminho_14" data-name="Caminho 14" d="M173.726-137.013c-20.136-29.271-50.122,14.346-85.775-23.422S-6.162-108,76.353-44.138,193.861-107.743,173.726-137.013Z" fill="rgba(254,166,35,0.1)"/>
        <path id="Caminho_15" data-name="Caminho 15" d="M183.6-146.076a12.378,12.378,0,0,0-1.071-5.712,3.326,3.326,0,0,0-3.045-2.016,3.242,3.242,0,0,0-3,2.016,12.815,12.815,0,0,0-1.029,5.712,12.956,12.956,0,0,0,1.029,5.733,3.242,3.242,0,0,0,3,2.037,3.324,3.324,0,0,0,3.045-2.037,12.514,12.514,0,0,0,1.071-5.733Zm7.182,0a18.167,18.167,0,0,1-.84,5.754,12.137,12.137,0,0,1-2.331,4.221,9.755,9.755,0,0,1-3.57,2.583,11.44,11.44,0,0,1-4.515.882,11.549,11.549,0,0,1-4.557-.882,9.755,9.755,0,0,1-3.57-2.583,11.884,11.884,0,0,1-2.31-4.221,18.6,18.6,0,0,1-.819-5.754,18.4,18.4,0,0,1,.819-5.733,11.906,11.906,0,0,1,2.31-4.2,9.755,9.755,0,0,1,3.57-2.583,11.55,11.55,0,0,1,4.557-.882,11.441,11.441,0,0,1,4.515.882,9.755,9.755,0,0,1,3.57,2.583,12.163,12.163,0,0,1,2.331,4.2,17.971,17.971,0,0,1,.837,5.733Z" fill="#fea623"/>
        <path id="Caminho_16" data-name="Caminho 16" d="M204.37-158.55a13.125,13.125,0,0,1,1.827-.42,11.688,11.688,0,0,1,1.869-.168,9.1,9.1,0,0,1,1.869.189,5,5,0,0,1,1.617.63,3.214,3.214,0,0,1,1.134,1.2,3.852,3.852,0,0,1,.42,1.89v11.172h3.738a7.664,7.664,0,0,1,.5,1.218,5.014,5.014,0,0,1,.252,1.6,3.016,3.016,0,0,1-.714,2.268,2.531,2.531,0,0,1-1.806.672H213.1v4.956q-.462.084-1.386.231a11.237,11.237,0,0,1-1.764.147,14.168,14.168,0,0,1-1.638-.084,2.752,2.752,0,0,1-1.2-.4,1.971,1.971,0,0,1-.735-.9,4.136,4.136,0,0,1-.252-1.6V-138.3H195.592a4.657,4.657,0,0,1-1.659-1.491,4.1,4.1,0,0,1-.693-2.415,8.362,8.362,0,0,1,.21-1.764,4.555,4.555,0,0,1,.714-1.68Zm2.142,6.594h-.126l-5.586,7.9h5.712Z" fill="#fea623"/>
        <path id="Caminho_17" data-name="Caminho 17" d="M127.133-98.516h2.737v-2.737h-2.737Z" fill="#fea623" fill-rule="evenodd"/>
        <path id="Caminho_18" data-name="Caminho 18" d="M121.659-98.516H124.4v-2.737h-2.737Z" fill="#fea623" fill-rule="evenodd"/>
        <path id="Caminho_19" data-name="Caminho 19" d="M116.186-98.516h2.737v-2.737h-2.737Z" fill="#fea623" fill-rule="evenodd"/>
        <path id="Caminho_20" data-name="Caminho 20" d="M75.137-145.04v50.632A1.375,1.375,0,0,0,76.5-93.04h57.469a1.376,1.376,0,0,0,1.369-1.368V-145.04a1.375,1.375,0,0,0-1.369-1.368H76.5A1.376,1.376,0,0,0,75.137-145.04Zm57.47,49.26H77.87v-36.945H97.03v6.842a1.376,1.376,0,0,0,1.368,1.368h13.683a1.376,1.376,0,0,0,1.368-1.368v-6.842h19.157V-95.78ZM99.77-132.725h10.947v5.473H99.77Zm32.84-2.737H113.45v-8.209h19.157Zm-21.893-8.21v8.21H99.77v-8.209h10.947Zm-13.683,0v8.21H77.87v-8.209H97.03Z" fill="#fea623"/>
        <path id="Caminho_21" data-name="Caminho 21" d="M141.651-86.2a4.626,4.626,0,0,0-2.217.561L122.69-76.624H100.36a2.062,2.062,0,0,1-2.052-2.052,2.062,2.062,0,0,1,2.052-2.052h11.721a8.249,8.249,0,0,0,8.21-8.21,1.376,1.376,0,0,0-1.368-1.368H84.8a6.835,6.835,0,0,0-3.394.9l-8,4.57H64.19V-82.1H72.4v15.052H64.19v2.737h58.838a1.358,1.358,0,0,0,.725-.205l20.361-12.725a4.63,4.63,0,0,0,2.176-3.927v-.4a4.661,4.661,0,0,0-4.639-4.632Zm1.9,5.035a1.861,1.861,0,0,1-.889,1.6L122.63-67.047H75.137V-82.674l7.622-4.351a4.1,4.1,0,0,1,2.039-.547h32.58a5.487,5.487,0,0,1-5.3,4.1H100.451a4.812,4.812,0,0,0-4.789,4.789,4.812,4.812,0,0,0,4.789,4.789h22.577a1.289,1.289,0,0,0,.643-.164L140.72-83.24a2.041,2.041,0,0,1,.931-.233,1.909,1.909,0,0,1,1.9,1.9Z" fill="#fea623"/>
        <path id="Caminho_22" data-name="Caminho 22" d="M127.133-98.516h2.737v-2.737h-2.737Z" fill="#fea623" fill-rule="evenodd"/>
        <path id="Caminho_23" data-name="Caminho 23" d="M121.66-98.516h2.74v-2.737h-2.74Z" fill="#fea623" fill-rule="evenodd"/>
        <path id="Caminho_24" data-name="Caminho 24" d="M116.186-98.516h2.737v-2.737h-2.737Z" fill="#fea623" fill-rule="evenodd"/>
      </g>
    </g>
  </g>
</svg>
